<svg width="177" height="36" viewBox="0 0 177 36" fill="none" xmlns="http://www.w3.org/2000/svg">
<path d="M16.3945 17.0703C16.3945 19.9297 15.6055 22.1328 14.0273 23.6797C12.457 25.2266 10.2461 26 7.39453 26H1.85156V8.86719H7.78125C10.5312 8.86719 12.6523 9.57031 14.1445 10.9766C15.6445 12.3828 16.3945 14.4141 16.3945 17.0703ZM11.5898 17.2344C11.5898 15.6641 11.2773 14.5 10.6523 13.7422C10.0352 12.9844 9.09375 12.6055 7.82812 12.6055H6.48047V22.2031H7.51172C8.91797 22.2031 9.94922 21.7969 10.6055 20.9844C11.2617 20.1641 11.5898 18.9141 11.5898 17.2344ZM29.9883 26L29.1445 22.7891H23.5781L22.7109 26H17.625L23.2148 8.79688H29.3906L35.0508 26H29.9883ZM28.1836 18.9922L27.4453 16.1797C27.2734 15.5547 27.0625 14.7461 26.8125 13.7539C26.5703 12.7617 26.4102 12.0508 26.332 11.6211C26.2617 12.0195 26.1211 12.6758 25.9102 13.5898C25.707 14.5039 25.25 16.3047 24.5391 18.9922H28.1836ZM53.2266 26H47.1562L40.8984 13.9297H40.793C40.9414 15.8281 41.0156 17.2773 41.0156 18.2773V26H36.9141V8.86719H42.9609L49.1953 20.7734H49.2656C49.1562 19.0469 49.1016 17.6602 49.1016 16.6133V8.86719H53.2266V26ZM56.9297 26V8.86719H61.582V26H56.9297ZM75.4688 26H65.2969V8.86719H75.4688V12.582H69.9258V15.2773H75.0586V18.9922H69.9258V22.2266H75.4688V26ZM78.4688 26V8.86719H83.0977V22.2617H89.6953V26H78.4688ZM112.898 26H111.914L108.152 12.7812C107.84 11.6953 107.605 10.8047 107.449 10.1094C107.324 10.7891 107.145 11.5703 106.91 12.4531C106.684 13.3359 105.426 17.8516 103.137 26H102.129L97.418 8.86719H98.6719L101.672 19.9062C101.789 20.3516 101.898 20.7656 102 21.1484C102.102 21.5234 102.191 21.8789 102.27 22.2148C102.355 22.543 102.43 22.8633 102.492 23.1758C102.562 23.4805 102.625 23.7891 102.68 24.1016C102.867 23.0391 103.266 21.4258 103.875 19.2617L106.805 8.86719H108.129L111.562 20.7969C111.961 22.1719 112.246 23.2812 112.418 24.125C112.52 23.5625 112.648 22.9648 112.805 22.332C112.969 21.6992 114.176 17.2109 116.426 8.86719H117.633L112.898 26ZM135.07 17.4102C135.07 20.1289 134.391 22.2812 133.031 23.8672C131.672 25.4453 129.797 26.2344 127.406 26.2344C125.023 26.2344 123.152 25.4453 121.793 23.8672C120.434 22.2812 119.754 20.1211 119.754 17.3867C119.754 14.6602 120.438 12.5156 121.805 10.9531C123.18 9.38281 125.055 8.59766 127.43 8.59766C129.82 8.59766 131.691 9.38672 133.043 10.9648C134.395 12.5352 135.07 14.6836 135.07 17.4102ZM121.055 17.4102C121.055 19.8633 121.602 21.7617 122.695 23.1055C123.789 24.4414 125.359 25.1094 127.406 25.1094C129.469 25.1094 131.043 24.4453 132.129 23.1172C133.223 21.7891 133.77 19.8867 133.77 17.4102C133.77 14.9414 133.223 13.0508 132.129 11.7383C131.043 10.418 129.477 9.75781 127.43 9.75781C125.391 9.75781 123.816 10.4219 122.707 11.75C121.605 13.0781 121.055 14.9648 121.055 17.4102ZM153.422 17.4102C153.422 20.1289 152.742 22.2812 151.383 23.8672C150.023 25.4453 148.148 26.2344 145.758 26.2344C143.375 26.2344 141.504 25.4453 140.145 23.8672C138.785 22.2812 138.105 20.1211 138.105 17.3867C138.105 14.6602 138.789 12.5156 140.156 10.9531C141.531 9.38281 143.406 8.59766 145.781 8.59766C148.172 8.59766 150.043 9.38672 151.395 10.9648C152.746 12.5352 153.422 14.6836 153.422 17.4102ZM139.406 17.4102C139.406 19.8633 139.953 21.7617 141.047 23.1055C142.141 24.4414 143.711 25.1094 145.758 25.1094C147.82 25.1094 149.395 24.4453 150.48 23.1172C151.574 21.7891 152.121 19.8867 152.121 17.4102C152.121 14.9414 151.574 13.0508 150.48 11.7383C149.395 10.418 147.828 9.75781 145.781 9.75781C143.742 9.75781 142.168 10.4219 141.059 11.75C139.957 13.0781 139.406 14.9648 139.406 17.4102ZM170.379 17.2695C170.379 20.1445 169.625 22.3203 168.117 23.7969C166.609 25.2656 164.395 26 161.473 26H157.371V8.86719H162C164.734 8.86719 166.812 9.58203 168.234 11.0117C169.664 12.4414 170.379 14.5273 170.379 17.2695ZM169.078 17.3164C169.078 14.8633 168.453 13.0195 167.203 11.7852C165.961 10.543 164.133 9.92188 161.719 9.92188H158.566V24.9453H161.402C166.52 24.9453 169.078 22.4023 169.078 17.3164Z" fill="white"/>
</svg>
